<?xml version="1.0" encoding="UTF-8" standalone="no"?>
<!DOCTYPE svg PUBLIC "-//W3C//DTD SVG 1.1//EN" "http://www.w3.org/Graphics/SVG/1.1/DTD/svg11.dtd">
<svg xmlns="http://www.w3.org/2000/svg" version="1.1" viewBox="0.00 0.00 116.00 136.00">
<path fill="#FE668C" d="
  M 61.88 51.68
  Q 62.99 50.59 64.18 49.48
  C 72.74 41.42 84.62 39.58 94.88 45.39
  C 101.73 49.27 106.34 55.64 106.81 63.53
  C 107.51 75.13 100.28 86.67 91.30 93.87
  Q 85.87 98.23 80.30 101.45
  Q 60.56 112.85 37.61 119.85
  Q 37.10 120.01 36.81 119.56
  Q 27.30 105.53 19.92 90.23
  C 15.42 80.89 11.50 70.67 10.25 60.49
  Q 8.93 49.74 13.18 39.80
  C 16.07 33.04 20.94 28.35 28.27 26.29
  C 40.62 22.82 54.50 29.02 58.98 41.30
  Q 60.49 45.43 61.19 51.44
  Q 61.28 52.27 61.88 51.68
  Z"
/>
</svg>
